<svg width="13" height="13" viewBox="0 0 13 13" fill="none" xmlns="http://www.w3.org/2000/svg">
<g id="kdpapp_unit_currency_primary_light_variantsize">
<circle id="Ellipse 87" cx="6" cy="6" r="6" fill="#877750"/>
<path id="Vector 186" d="M6.75 4.5L4.875 3L3.75 9L7.5 12.75L12.75 7.5L8.25 3.225L6.75 4.5Z" fill="url(#paint0_linear_456_2171)" fill-opacity="0.2"/>
<path id="Vector" d="M5.22646 5.92885L7.95325 3.04691C7.9626 3.03726 7.9738 3.02959 7.98619 3.02435C7.99857 3.01911 8.01188 3.01641 8.02534 3.01641C8.03879 3.01641 8.0521 3.01911 8.06449 3.02435C8.07687 3.02959 8.08807 3.03726 8.09742 3.04691L8.77128 3.72088C8.78928 3.73928 8.79935 3.76397 8.79935 3.78968C8.79935 3.81539 8.78928 3.84008 8.77128 3.85848L6.85156 5.92885C6.83403 5.94718 6.82425 5.97154 6.82425 5.99687C6.82425 6.02221 6.83403 6.04657 6.85156 6.06489L8.77442 8.13995C8.79251 8.15862 8.80263 8.18357 8.80263 8.20954C8.80263 8.23551 8.79251 8.26046 8.77442 8.27912L8.10056 8.95152C8.09121 8.96117 8.08 8.96884 8.06762 8.97408C8.05524 8.97932 8.04192 8.98202 8.02847 8.98202C8.01502 8.98202 8.00171 8.97932 7.98932 8.97408C7.97694 8.96884 7.96573 8.96117 7.95638 8.95152L5.22646 6.06646C5.20917 6.0477 5.19958 6.02314 5.19958 5.99765C5.19958 5.97217 5.20917 5.94761 5.22646 5.92885ZM3.75 3.10008C3.75 3.07354 3.76057 3.04808 3.77938 3.02931C3.79818 3.01054 3.8237 3 3.8503 3H4.88459C4.89776 3 4.91081 3.00259 4.92298 3.00762C4.93514 3.01265 4.9462 3.02002 4.95551 3.02931C4.96483 3.0386 4.97221 3.04964 4.97725 3.06178C4.98229 3.07392 4.98489 3.08694 4.98489 3.10008V8.89992C4.98489 8.91306 4.98229 8.92608 4.97725 8.93822C4.97221 8.95036 4.96483 8.96139 4.95551 8.97069C4.9462 8.97998 4.93514 8.98735 4.92298 8.99238C4.91081 8.99741 4.89776 9 4.88459 9H3.8503C3.8237 9 3.79818 8.98946 3.77938 8.97069C3.76057 8.95192 3.75 8.92646 3.75 8.89992L3.75 3.10008Z" fill="white"/>
</g>
<defs>
<linearGradient id="paint0_linear_456_2171" x1="3" y1="4.875" x2="7.875" y2="9.75" gradientUnits="userSpaceOnUse">
<stop offset="0.4829"/>
<stop offset="1" stop-opacity="0"/>
</linearGradient>
</defs>
</svg>
